<?xml version="1.0" standalone="no"?>
<!DOCTYPE svg PUBLIC "-//W3C//DTD SVG 20010904//EN"
 "http://www.w3.org/TR/2001/REC-SVG-20010904/DTD/svg10.dtd">
<svg version="1.0" xmlns="http://www.w3.org/2000/svg"
 width="32.000000pt" height="32.000000pt" viewBox="0 0 32.000000 32.000000"
 preserveAspectRatio="xMidYMid meet">

<g transform="translate(0.000000,32.000000) scale(0.100000,-0.100000)"
fill="#000000" stroke="none">
<path d="M85 297 c-47 -26 -85 -88 -85 -137 0 -78 82 -160 160 -160 78 0 160
82 160 160 0 78 -82 160 -160 160 -19 0 -53 -10 -75 -23z m131 -81 c24 -24 44
-48 44 -53 0 -5 -22 -31 -50 -58 l-50 -49 -50 49 c-27 27 -50 53 -50 58 0 14
86 97 100 97 7 0 32 -20 56 -44z"/>
<path d="M120 195 l-34 -35 37 -38 37 -37 37 37 37 38 -34 35 c-19 19 -37 35
-40 35 -3 0 -21 -16 -40 -35z m70 -10 l24 -26 -27 -27 -27 -27 -27 27 -27 27
24 26 c13 14 26 25 30 25 4 0 17 -11 30 -25z"/>
</g>
</svg>
